P3
3 3
255
80
60
30
130
170
100
60
90
255
230
170
130
70
255
80
60
230
60
255
30
30
30
255
30
30
30
255
